<?xml version="1.0" standalone="no"?>
<!DOCTYPE svg PUBLIC "-//W3C//DTD SVG 20010904//EN"
 "http://www.w3.org/TR/2001/REC-SVG-20010904/DTD/svg10.dtd">
<svg version="1.0" xmlns="http://www.w3.org/2000/svg"
 width="1000.000000pt" height="929.000000pt" viewBox="0 0 1000.000000 929.000000"
 preserveAspectRatio="xMidYMid meet">

<g transform="translate(0.000000,929.000000) scale(0.100000,-0.100000)"
fill="#FFFFFF" stroke="none">
<path d="M4755 7480 c-492 -41 -992 -201 -1410 -453 -1152 -694 -1749 -2050
-1479 -3365 114 -558 410 -1148 758 -1510 l80 -84 18 70 c9 39 26 88 37 110
11 21 198 320 416 663 l397 624 -7 85 c-4 47 -11 137 -16 200 -4 63 -9 162 -9
220 0 58 -3 115 -6 128 l-6 22 -764 0 -764 0 0 100 0 100 765 0 764 0 5 33 c3
17 7 109 10 202 11 344 64 752 141 1090 19 83 37 160 41 172 5 19 -8 28 -133
91 -176 87 -260 136 -398 230 -115 78 -285 211 -285 221 0 12 125 131 138 131
6 0 49 -30 94 -67 122 -99 326 -229 486 -311 77 -40 144 -72 150 -72 5 0 31
62 57 138 132 380 319 715 504 903 l86 86 115 17 c126 18 352 38 358 31 2 -2
-15 -9 -39 -15 -24 -7 -71 -26 -104 -42 -296 -150 -559 -532 -745 -1084 l-38
-112 23 -10 c32 -15 247 -78 326 -96 151 -34 454 -76 557 -76 21 0 22 -3 22
-101 l0 -101 -87 7 c-294 22 -575 75 -811 154 l-82 27 -11 -40 c-90 -332 -152
-803 -173 -1293 l-5 -113 585 0 584 0 0 -100 0 -100 -584 0 -583 0 5 -142 c2
-79 7 -161 11 -183 l7 -40 37 62 c114 187 333 286 539 242 82 -18 120 -38 369
-189 127 -78 235 -138 238 -133 3 5 28 43 54 85 l48 77 -12 61 c-17 89 -6 164
51 351 l50 166 -2 1442 -3 1443 -33 29 c-32 28 -34 29 -140 28 -59 -1 -147 -5
-197 -9z"/>
<path d="M6855 7476 c-252 -59 -435 -234 -500 -481 -19 -72 -21 -211 -5 -291
6 -33 31 -100 56 -151 75 -156 205 -269 379 -329 71 -25 94 -28 205 -28 109 0
136 4 207 27 159 53 294 168 372 317 53 102 73 184 73 300 0 116 -20 198 -74
303 -76 146 -223 268 -383 317 -90 28 -246 35 -330 16z"/>
<path d="M6146 6387 c-151 -80 -296 -244 -357 -401 -15 -39 -148 -460 -296
-936 -252 -812 -268 -870 -268 -940 1 -58 6 -85 23 -117 l22 -42 -136 -208
c-74 -114 -137 -209 -139 -211 -2 -2 -136 78 -299 177 -391 239 -365 226 -461
226 -67 0 -89 -4 -135 -27 -30 -15 -69 -42 -86 -60 -30 -31 -1031 -1604 -1077
-1692 -18 -33 -22 -58 -22 -126 0 -76 3 -91 30 -139 38 -69 58 -85 310 -239
l210 -129 -3 -51 c-8 -124 56 -252 159 -321 178 -119 417 -55 511 136 29 59
33 77 33 148 0 92 -13 135 -61 205 l-35 50 517 818 c285 449 590 930 680 1067
l163 250 79 -3 c64 -3 88 0 130 18 28 12 57 28 63 36 22 27 29 13 29 -61 0
-75 195 -2582 205 -2642 3 -19 19 -43 37 -58 27 -23 39 -26 72 -22 59 8 86 43
86 110 0 29 -43 587 -95 1242 -51 654 -93 1191 -91 1192 2 2 189 2 417 1 l414
-3 -142 -1195 c-78 -657 -142 -1216 -142 -1242 -1 -62 28 -97 85 -105 36 -5
46 -1 75 25 l33 30 63 523 c34 288 62 539 63 557 0 17 3 32 8 32 4 0 33 -91
66 -203 260 -897 265 -911 296 -939 42 -39 92 -38 131 1 21 21 29 39 29 64 0
19 -104 387 -231 818 l-230 784 46 395 c25 217 49 410 52 428 l5 32 262 0 261
0 148 -1242 c161 -1360 148 -1284 220 -1302 47 -12 90 6 112 47 16 31 12 70
-134 1302 -83 699 -151 1291 -151 1316 l0 46 62 -31 c54 -27 72 -31 143 -30
66 0 89 5 131 27 99 50 164 153 164 258 0 35 -70 251 -280 869 -154 452 -294
856 -311 898 -53 133 -169 308 -198 298 -15 -4 -172 -68 -179 -73 -2 -1 18
-28 46 -61 65 -78 114 -161 151 -252 61 -155 61 -148 61 -1050 l0 -820 -780 0
-780 0 0 285 0 286 205 664 c113 365 205 678 205 695 0 76 -105 119 -162 67
-30 -28 -10 33 -313 -952 -136 -440 -251 -807 -256 -817 -25 -46 -97 -63 -144
-32 -13 9 -29 31 -35 49 -10 31 11 106 259 912 192 623 283 902 312 962 58
118 145 204 267 263 l90 45 -35 44 c-19 24 -46 61 -59 82 -13 20 -28 37 -32
37 -4 0 -43 -19 -86 -43z m1723 -1964 c125 -366 133 -395 121 -423 -24 -58
-114 -77 -152 -32 -8 9 -43 94 -77 188 l-61 172 0 293 1 294 18 -50 c9 -27 77
-227 150 -442z m-3510 -1158 c54 -53 50 -62 -223 -495 -137 -217 -283 -449
-324 -515 -91 -145 -106 -163 -147 -171 -37 -7 -89 16 -105 45 -29 55 -22 67
320 611 208 331 340 532 357 543 36 23 89 16 122 -18z m-492 -1686 c106 -40
132 -174 48 -248 -84 -73 -203 -41 -240 64 -39 115 78 227 192 184z"/>
<path d="M5096 2940 c-16 -25 -153 -241 -304 -480 -151 -239 -310 -490 -353
-558 -44 -68 -84 -132 -89 -143 -10 -17 -1 -32 53 -102 133 -171 287 -291 430
-338 37 -12 66 -23 64 -25 -11 -11 -452 41 -518 62 -13 3 -18 -4 -24 -32 -3
-20 -17 -62 -31 -92 -13 -31 -21 -59 -17 -62 27 -24 371 -69 583 -77 l165 -6
32 27 c19 16 35 40 38 59 3 18 4 432 3 922 l-3 890 -29 -45z"/>
</g>
</svg>
